<svg xmlns="http://www.w3.org/2000/svg" viewBox="0 0 404.21 467.52"><defs><style>.cls-1{fill:#29b6f6;}.cls-2,.cls-5{fill:#0277bd;}.cls-3,.cls-6{fill:#039be5;}.cls-4{fill:#29e3f6;}.cls-4,.cls-5,.cls-6{opacity:0.5;}</style></defs><title>asylo_logo</title><g id="Layer_2" data-name="Layer 2"><g id="Layer_1-2" data-name="Layer 1"><polygon class="cls-1" points="29.75 134.4 87.36 167.72 202.11 234.08 316.85 167.72 374.46 134.4 202.11 34.72 29.75 134.4"/><polygon class="cls-2" points="202.11 234.08 202.11 433.43 374.46 333.75 374.46 134.4 316.85 167.72 202.11 234.08"/><polygon class="cls-3" points="29.75 134.4 29.75 333.75 202.11 433.43 202.11 234.08 87.36 167.72 29.75 134.4"/><polygon class="cls-4" points="0 116.88 67.56 155.95 202.11 233.76 336.65 155.95 404.21 116.88 202.11 0 0 116.88"/><polygon class="cls-5" points="202.11 233.76 202.11 467.52 404.21 350.64 404.21 116.88 336.65 155.95 202.11 233.76"/><polygon class="cls-6" points="0 116.88 0 350.64 202.11 467.52 202.11 233.76 67.56 155.95 0 116.88"/></g></g></svg>